<svg id="svg" version="1.1" xmlns="http://www.w3.org/2000/svg" xmlns:xlink="http://www.w3.org/1999/xlink" width="400" height="400" viewBox="0, 0, 400,400"><g id="svgg"><path id="path0" d="M188.052 108.289 C 187.462 108.400,186.939 108.908,186.665 109.634 L 186.225 110.800 180.784 110.800 C 174.554 110.800,172.004 111.394,171.264 113.019 C 170.849 113.930,170.609 114.000,167.889 114.000 C 164.661 114.000,164.000 114.354,164.000 116.080 L 164.000 117.200 161.000 117.200 C 158.362 117.200,158.000 117.288,158.000 117.930 C 158.000 119.303,156.367 120.342,154.000 120.476 L 151.800 120.600 151.676 122.100 L 151.552 123.600 149.056 123.600 C 146.389 123.600,145.600 124.020,145.600 125.437 C 145.600 126.379,144.911 126.800,143.367 126.800 C 142.532 126.800,142.400 126.987,142.400 128.176 C 142.400 129.477,142.319 129.558,140.900 129.676 C 139.486 129.793,139.393 129.885,139.277 131.277 C 139.162 132.665,139.065 132.762,137.677 132.877 C 136.289 132.993,136.193 133.089,136.077 134.477 C 135.962 135.865,135.865 135.962,134.477 136.077 C 133.085 136.193,132.993 136.286,132.876 137.700 L 132.752 139.200 128.176 139.200 C 123.603 139.200,123.600 139.199,123.600 138.233 C 123.600 136.188,123.312 136.000,120.181 136.000 L 117.248 136.000 117.124 134.500 C 117.007 133.081,116.919 132.993,115.500 132.876 C 114.263 132.774,113.999 132.598,113.994 131.876 C 113.982 130.119,113.507 129.918,108.848 129.698 C 104.623 129.497,104.400 129.443,104.400 128.623 C 104.400 126.238,99.956 125.933,98.227 128.200 C 97.276 129.447,96.955 129.601,95.280 129.606 C 92.067 129.617,92.197 129.186,92.227 139.744 C 92.255 149.812,92.520 151.200,94.409 151.200 C 95.017 151.200,95.200 151.471,95.200 152.371 C 95.200 153.016,95.483 153.826,95.829 154.171 C 96.400 154.743,96.198 154.800,93.602 154.800 C 90.119 154.800,89.200 155.221,89.200 156.814 C 89.200 157.862,89.062 158.000,88.014 158.000 C 86.162 158.000,85.968 158.835,86.090 166.292 L 86.200 173.000 87.684 173.367 L 89.168 173.733 89.284 176.567 L 89.400 179.400 90.900 179.524 C 92.358 179.645,92.400 179.692,92.400 181.224 C 92.400 182.753,92.441 182.800,93.776 182.800 C 95.077 182.800,95.158 182.881,95.276 184.300 C 95.374 185.481,95.583 185.826,96.258 185.922 C 97.276 186.067,98.260 187.085,98.462 188.200 C 98.571 188.803,98.976 189.031,100.103 189.124 C 101.939 189.276,101.944 189.189,100.000 191.153 C 98.850 192.315,98.400 193.105,98.400 193.966 C 98.400 195.015,98.228 195.196,97.018 195.423 C 94.517 195.892,94.501 203.970,97.000 204.399 C 98.147 204.595,98.205 204.702,98.304 206.802 C 98.477 210.473,98.631 210.800,100.183 210.800 C 101.476 210.800,101.559 210.883,101.676 212.300 C 101.793 213.719,101.881 213.807,103.300 213.924 C 104.708 214.041,104.800 214.130,104.800 215.381 C 104.800 216.789,105.304 217.200,107.033 217.200 C 107.775 217.200,108.000 217.414,108.000 218.120 C 108.000 219.275,108.704 220.000,109.827 220.000 C 110.625 220.000,110.711 220.248,110.893 223.082 C 111.007 224.863,111.282 226.227,111.545 226.315 C 111.795 226.398,112.000 226.718,112.000 227.024 C 112.000 227.331,112.450 227.876,113.000 228.237 C 113.923 228.842,114.000 229.128,114.000 231.966 C 114.000 235.347,114.337 236.000,116.080 236.000 L 117.200 236.000 117.200 239.000 L 117.200 242.000 118.783 242.000 L 120.366 242.000 120.483 245.100 L 120.600 248.200 122.100 248.324 L 123.600 248.448 123.600 250.748 C 123.600 253.314,124.120 254.282,125.600 254.472 C 126.420 254.577,126.624 254.852,126.733 255.997 C 126.877 257.518,127.330 257.984,128.675 257.994 C 129.367 257.999,129.575 258.270,129.675 259.300 C 129.789 260.483,129.933 260.611,131.277 260.723 C 132.665 260.838,132.762 260.935,132.877 262.323 C 132.993 263.711,133.089 263.807,134.477 263.923 C 135.865 264.038,135.962 264.135,136.077 265.523 C 136.193 266.911,136.289 267.007,137.677 267.123 C 139.065 267.238,139.162 267.335,139.277 268.723 C 139.393 270.115,139.486 270.207,140.900 270.324 C 142.317 270.441,142.400 270.524,142.400 271.819 C 142.400 273.110,142.494 273.206,144.000 273.446 C 145.180 273.635,145.600 273.892,145.600 274.423 C 145.600 275.785,146.721 276.400,149.204 276.400 L 151.552 276.400 151.676 277.900 L 151.800 279.400 154.900 279.517 L 158.000 279.634 158.000 281.217 L 158.000 282.800 161.000 282.800 C 163.910 282.800,164.000 282.829,164.000 283.771 C 164.000 285.549,164.937 286.000,168.629 286.000 C 172.103 286.000,173.600 286.649,173.600 288.153 C 173.600 289.028,174.939 289.189,182.300 289.195 L 189.200 289.200 189.200 290.120 C 189.200 291.932,189.588 292.000,200.000 292.000 C 210.412 292.000,210.800 291.932,210.800 290.120 L 210.800 289.200 217.700 289.195 C 226.151 289.188,226.400 289.135,226.400 287.353 L 226.400 286.000 230.571 286.000 C 235.116 286.000,236.000 285.637,236.000 283.771 C 236.000 282.829,236.090 282.800,239.000 282.800 L 242.000 282.800 242.000 281.217 L 242.000 279.634 245.100 279.517 L 248.200 279.400 248.324 277.900 C 248.447 276.414,248.465 276.400,250.198 276.400 C 252.617 276.400,253.930 275.819,254.232 274.614 C 254.429 273.829,254.741 273.600,255.615 273.600 C 256.991 273.600,258.000 272.668,258.000 271.397 C 258.000 270.622,258.235 270.428,259.300 270.325 C 260.483 270.211,260.611 270.067,260.723 268.723 C 260.838 267.335,260.935 267.238,262.323 267.123 C 263.711 267.007,263.807 266.911,263.923 265.523 C 264.038 264.135,264.135 264.038,265.523 263.923 C 266.911 263.807,267.007 263.711,267.123 262.323 C 267.238 260.935,267.335 260.838,268.723 260.723 C 270.067 260.611,270.211 260.483,270.325 259.300 C 270.428 258.235,270.622 258.000,271.397 258.000 C 272.668 258.000,273.600 256.991,273.600 255.615 C 273.600 254.741,273.829 254.429,274.614 254.232 C 275.819 253.930,276.400 252.617,276.400 250.198 C 276.400 248.465,276.414 248.447,277.900 248.324 L 279.400 248.200 279.517 245.100 L 279.634 242.000 281.217 242.000 L 282.800 242.000 282.800 239.000 C 282.800 236.090,282.829 236.000,283.771 236.000 C 285.637 236.000,286.000 235.116,286.000 230.571 L 286.000 226.400 287.353 226.400 C 288.936 226.400,289.186 225.851,289.195 222.350 C 289.200 220.168,289.237 220.093,290.408 219.858 C 291.353 219.669,291.669 219.353,291.858 218.408 C 292.043 217.485,292.317 217.200,293.017 217.200 C 294.694 217.200,295.200 216.778,295.200 215.381 C 295.200 214.130,295.292 214.041,296.700 213.924 C 298.119 213.807,298.207 213.719,298.324 212.300 C 298.437 210.939,298.556 210.800,299.610 210.800 C 301.133 210.800,301.600 209.867,301.600 206.826 C 301.600 204.538,301.654 204.400,302.551 204.400 C 305.306 204.400,305.619 195.945,302.874 195.675 C 301.679 195.557,301.600 195.452,301.600 193.975 C 301.600 192.717,301.453 192.400,300.870 192.400 C 298.607 192.400,297.691 189.307,299.900 189.124 C 301.314 189.007,301.407 188.915,301.523 187.523 C 301.638 186.135,301.735 186.038,303.123 185.923 C 304.511 185.807,304.607 185.711,304.723 184.323 C 304.838 182.935,304.935 182.838,306.323 182.723 C 307.711 182.607,307.807 182.511,307.923 181.124 C 308.034 179.787,308.166 179.636,309.323 179.524 L 310.600 179.400 310.716 176.567 L 310.832 173.733 312.316 173.367 L 313.800 173.000 313.800 165.885 C 313.800 158.254,313.738 158.020,311.700 158.006 C 311.015 158.001,310.800 157.767,310.800 157.029 C 310.800 155.302,309.840 154.800,306.543 154.800 C 303.816 154.800,303.600 154.743,304.171 154.171 C 304.517 153.826,304.801 153.061,304.803 152.471 C 304.804 151.701,305.142 151.208,306.003 150.719 C 306.702 150.320,307.200 149.707,307.200 149.242 C 307.200 148.805,307.380 148.336,307.600 148.200 C 307.846 148.048,308.000 144.672,308.000 139.405 C 308.000 129.571,308.010 129.600,304.792 129.600 C 303.032 129.600,302.736 129.463,301.773 128.200 C 300.042 125.930,295.600 126.239,295.600 128.629 C 295.600 129.457,295.394 129.506,291.166 129.680 C 286.500 129.872,286.019 130.077,286.006 131.876 C 286.001 132.598,285.737 132.774,284.500 132.876 C 283.081 132.993,282.993 133.081,282.876 134.500 L 282.752 136.000 279.776 136.000 C 276.895 136.000,276.800 136.031,276.800 136.967 C 276.800 139.135,276.654 139.200,271.781 139.200 L 267.248 139.200 267.124 137.700 C 267.007 136.286,266.915 136.193,265.523 136.077 C 264.135 135.962,264.038 135.865,263.923 134.477 C 263.807 133.089,263.711 132.993,262.323 132.877 C 260.935 132.762,260.838 132.665,260.723 131.277 C 260.612 129.944,260.477 129.788,259.340 129.678 C 258.260 129.573,258.044 129.362,257.827 128.201 C 257.598 126.982,257.424 126.834,256.086 126.723 C 254.843 126.620,254.579 126.437,254.472 125.600 C 254.282 124.120,253.314 123.600,250.748 123.600 L 248.448 123.600 248.324 122.100 L 248.200 120.600 245.100 120.483 L 242.000 120.366 242.000 118.783 L 242.000 117.200 239.000 117.200 L 236.000 117.200 236.000 116.080 C 236.000 114.337,235.347 114.000,231.966 114.000 C 229.128 114.000,228.842 113.923,228.237 113.000 C 227.876 112.450,227.331 112.000,227.024 112.000 C 226.718 112.000,226.392 111.775,226.300 111.500 C 226.180 111.137,224.444 110.963,219.955 110.866 L 213.775 110.732 213.141 109.626 C 212.734 108.916,212.041 108.428,211.203 108.261 C 209.775 107.975,189.579 107.999,188.052 108.289 M205.600 116.796 C 206.810 116.977,210.816 117.500,214.503 117.960 C 220.259 118.677,221.524 118.965,223.459 119.997 C 224.699 120.659,226.109 121.200,226.593 121.200 C 228.081 121.200,231.250 122.308,232.148 123.142 C 232.617 123.577,234.080 124.212,235.400 124.552 C 236.720 124.893,238.070 125.498,238.400 125.897 C 238.730 126.297,239.891 126.962,240.981 127.376 C 242.071 127.789,243.421 128.619,243.981 129.218 C 244.541 129.818,245.417 130.435,245.926 130.589 C 246.436 130.744,247.426 131.362,248.126 131.962 C 248.827 132.562,250.066 133.456,250.881 133.947 C 257.422 137.897,261.750 144.329,259.111 146.177 C 257.442 147.346,243.452 146.877,241.800 145.597 C 241.580 145.426,239.690 145.077,237.600 144.820 C 230.816 143.988,229.192 143.649,228.030 142.821 C 227.401 142.374,225.648 141.747,224.134 141.428 C 220.917 140.751,219.378 140.212,219.022 139.636 C 217.851 137.740,201.340 136.721,190.000 137.844 C 183.814 138.457,182.588 138.745,179.961 140.207 C 179.389 140.525,177.629 141.057,176.048 141.390 C 174.468 141.722,172.662 142.374,172.034 142.838 C 171.282 143.394,169.822 143.820,167.747 144.088 C 163.272 144.665,158.983 145.435,156.200 146.161 C 152.801 147.048,142.148 147.059,140.889 146.177 C 138.977 144.838,139.612 142.740,142.900 139.531 C 147.217 135.316,148.046 134.593,149.806 133.503 C 150.689 132.956,151.640 132.234,151.919 131.897 C 152.198 131.561,153.006 131.058,153.713 130.780 C 154.421 130.502,155.540 129.776,156.200 129.167 C 156.860 128.558,158.210 127.745,159.200 127.360 C 160.190 126.976,161.430 126.242,161.955 125.731 C 162.480 125.219,163.212 124.800,163.583 124.800 C 164.593 124.800,168.000 123.572,168.000 123.208 C 168.000 122.705,170.434 121.708,172.400 121.406 C 173.390 121.254,175.301 120.602,176.647 119.957 C 178.355 119.139,180.168 118.663,182.647 118.382 C 186.320 117.965,194.544 116.848,195.600 116.621 C 196.815 116.361,203.466 116.477,205.600 116.796 M106.862 137.471 C 107.674 137.796,108.440 138.327,108.564 138.651 C 108.688 138.975,109.769 139.672,110.965 140.201 C 112.161 140.730,113.288 141.425,113.470 141.745 C 113.651 142.065,114.880 142.702,116.200 143.161 C 117.520 143.619,118.913 144.373,119.295 144.836 C 119.777 145.419,121.066 145.911,123.495 146.441 C 125.423 146.861,127.471 147.551,128.047 147.975 C 131.548 150.552,163.435 150.591,167.657 148.024 C 168.372 147.589,170.748 146.920,172.937 146.537 C 175.362 146.112,177.168 145.580,177.559 145.174 C 178.583 144.111,179.672 143.680,182.629 143.170 C 184.153 142.907,186.750 142.246,188.400 141.701 C 193.797 139.920,208.442 140.002,212.172 141.835 C 212.817 142.152,214.937 142.702,216.884 143.058 C 219.277 143.496,220.969 144.065,222.111 144.816 C 223.260 145.571,224.951 146.137,227.400 146.586 C 229.380 146.949,231.678 147.594,232.508 148.020 C 237.176 150.419,268.776 150.591,271.600 148.233 C 272.436 147.535,274.150 146.928,277.264 146.227 C 278.834 145.874,280.336 145.251,280.920 144.709 C 281.466 144.203,282.877 143.447,284.056 143.029 C 285.235 142.610,286.349 142.019,286.530 141.716 C 286.712 141.412,287.839 140.730,289.035 140.201 C 290.231 139.672,291.312 138.975,291.436 138.651 C 292.014 137.143,298.573 135.830,299.733 136.990 C 301.188 138.445,300.904 143.160,299.252 144.967 C 298.833 145.425,298.091 146.595,297.603 147.567 C 297.115 148.538,296.150 149.921,295.458 150.639 C 294.766 151.358,293.885 152.273,293.500 152.673 C 293.115 153.073,292.533 153.670,292.207 154.000 C 291.881 154.330,291.206 155.015,290.707 155.523 C 289.031 157.229,285.940 159.614,284.364 160.419 C 283.504 160.857,282.800 161.403,282.800 161.631 C 282.800 161.859,281.945 162.420,280.900 162.879 C 279.855 163.337,278.420 164.217,277.711 164.834 C 276.578 165.821,274.234 166.791,272.970 166.798 C 272.733 166.799,272.129 167.237,271.628 167.770 C 271.101 168.332,269.850 168.941,268.658 169.218 C 267.526 169.481,265.685 170.210,264.566 170.840 C 263.447 171.469,261.197 172.263,259.566 172.606 C 254.988 173.567,252.774 176.629,256.200 177.259 C 260.487 178.048,268.764 177.339,272.535 175.860 C 273.891 175.328,276.162 174.769,277.583 174.617 C 280.445 174.312,282.325 173.656,283.134 172.681 C 283.427 172.327,284.682 171.742,285.923 171.381 C 287.164 171.021,288.757 170.218,289.463 169.598 C 290.170 168.978,291.164 168.340,291.674 168.181 C 292.183 168.022,293.182 167.384,293.894 166.763 C 294.606 166.142,296.098 165.364,297.210 165.034 C 298.321 164.704,299.698 164.066,300.269 163.617 C 302.930 161.524,307.997 166.245,305.401 168.399 C 305.072 168.672,304.546 169.760,304.232 170.817 C 303.506 173.261,302.864 174.464,301.934 175.124 C 301.528 175.413,300.917 176.187,300.576 176.846 C 300.236 177.504,298.932 179.025,297.679 180.226 C 296.425 181.427,294.860 182.947,294.200 183.605 C 293.540 184.262,292.780 184.800,292.512 184.800 C 292.243 184.800,291.633 185.328,291.156 185.974 C 290.678 186.620,289.458 187.565,288.444 188.074 C 287.430 188.583,286.012 189.492,285.293 190.094 C 284.574 190.696,283.494 191.311,282.893 191.460 C 282.292 191.609,281.170 192.231,280.400 192.842 C 279.630 193.452,278.142 194.165,277.093 194.425 C 276.044 194.685,274.554 195.401,273.781 196.015 C 272.807 196.789,271.515 197.285,269.572 197.633 C 268.030 197.908,266.389 198.462,265.926 198.864 C 265.090 199.590,262.795 200.393,261.549 200.398 C 258.983 200.407,259.964 203.979,262.549 204.037 C 268.745 204.176,280.369 202.424,282.123 201.086 C 282.828 200.548,284.384 199.898,285.580 199.642 C 286.777 199.385,288.805 198.704,290.089 198.128 L 292.422 197.081 293.405 198.004 C 295.472 199.947,295.071 203.107,292.386 206.015 C 291.514 206.960,290.800 207.838,290.799 207.967 C 290.799 208.095,289.854 208.827,288.699 209.593 C 287.545 210.359,286.009 211.484,285.286 212.093 C 284.563 212.702,283.725 213.200,283.424 213.200 C 283.122 213.200,282.136 213.818,281.233 214.573 C 280.119 215.503,278.858 216.097,277.320 216.417 C 276.072 216.676,274.392 217.324,273.587 217.856 C 272.574 218.526,270.904 219.017,268.162 219.451 C 265.983 219.795,263.390 220.402,262.400 220.798 C 261.410 221.195,259.359 221.807,257.843 222.158 C 254.500 222.932,254.137 223.208,253.795 225.228 C 253.645 226.120,252.970 227.478,252.249 228.341 C 251.546 229.183,250.723 230.621,250.421 231.536 C 250.119 232.451,249.717 233.200,249.527 233.200 C 249.338 233.200,248.644 234.049,247.987 235.086 C 247.329 236.123,246.298 237.458,245.695 238.053 C 245.093 238.648,244.181 239.690,243.670 240.367 C 243.158 241.045,242.483 241.600,242.170 241.600 C 241.856 241.600,241.600 241.856,241.600 242.170 C 241.600 242.483,241.045 243.158,240.367 243.670 C 239.690 244.181,238.648 245.093,238.053 245.695 C 237.458 246.298,236.123 247.329,235.086 247.987 C 234.049 248.644,233.200 249.331,233.200 249.512 C 233.200 249.694,232.322 250.158,231.248 250.544 C 230.175 250.930,228.894 251.674,228.402 252.198 C 227.901 252.731,226.295 253.519,224.754 253.987 C 223.239 254.447,222.000 254.983,222.000 255.178 C 222.000 255.695,219.002 256.711,216.000 257.212 C 214.570 257.450,212.410 258.027,211.200 258.494 C 207.782 259.811,194.683 260.008,190.400 258.807 C 188.750 258.344,185.705 257.616,183.633 257.190 C 181.374 256.726,179.292 256.029,178.433 255.451 C 177.645 254.921,176.010 254.180,174.800 253.805 C 173.590 253.429,172.240 252.712,171.800 252.211 C 171.360 251.711,170.310 251.079,169.466 250.808 C 168.622 250.537,167.362 249.819,166.666 249.213 C 165.970 248.607,164.817 247.812,164.104 247.447 C 163.391 247.082,162.504 246.321,162.134 245.755 C 161.763 245.190,161.034 244.565,160.514 244.367 C 159.993 244.169,159.259 243.465,158.883 242.803 C 158.508 242.140,157.878 241.494,157.485 241.367 C 157.092 241.240,156.324 240.431,155.780 239.568 C 155.235 238.706,154.614 238.000,154.400 238.000 C 154.186 238.000,153.536 237.235,152.957 236.300 C 152.377 235.365,151.482 234.147,150.967 233.594 C 150.452 233.041,149.771 231.851,149.453 230.950 C 149.135 230.048,148.414 228.850,147.851 228.288 C 147.288 227.725,146.621 226.445,146.369 225.444 C 145.787 223.129,145.562 222.961,141.757 221.992 C 140.021 221.550,138.060 220.940,137.400 220.636 C 136.740 220.331,134.311 219.788,132.003 219.429 C 129.027 218.965,127.398 218.497,126.403 217.822 C 125.631 217.298,123.939 216.656,122.641 216.394 C 121.113 216.086,119.931 215.568,119.285 214.921 C 118.736 214.372,117.522 213.595,116.587 213.195 C 115.653 212.794,114.763 212.264,114.610 212.017 C 114.458 211.770,113.583 211.101,112.666 210.531 C 110.069 208.916,106.227 204.734,105.688 202.937 C 104.626 199.390,106.803 196.415,109.357 197.922 C 110.110 198.366,112.047 199.045,113.663 199.431 C 115.278 199.818,117.100 200.547,117.712 201.051 C 118.922 202.050,118.920 202.049,126.800 203.182 C 136.269 204.543,138.934 204.474,139.775 202.849 C 140.535 201.378,139.786 200.567,137.300 200.170 C 136.377 200.022,135.042 199.473,134.333 198.951 C 133.624 198.428,132.818 198.000,132.542 198.000 C 130.869 198.000,127.811 196.967,125.966 195.778 C 124.790 195.020,123.499 194.400,123.098 194.400 C 122.147 194.400,119.200 192.894,119.200 192.407 C 119.200 192.200,118.459 191.831,117.554 191.588 C 116.649 191.344,115.465 190.701,114.924 190.160 C 114.382 189.618,113.172 188.815,112.235 188.375 C 111.298 187.934,109.927 186.950,109.187 186.187 C 108.448 185.424,107.630 184.800,107.369 184.800 C 107.108 184.800,106.414 184.170,105.827 183.400 C 105.240 182.630,104.501 182.000,104.185 182.000 C 103.869 182.000,103.165 181.294,102.620 180.432 C 102.076 179.569,101.281 178.753,100.855 178.617 C 100.428 178.482,99.972 177.943,99.840 177.419 C 99.709 176.895,98.964 175.866,98.185 175.133 C 97.236 174.241,96.559 173.083,96.136 171.631 C 95.788 170.439,95.165 169.100,94.752 168.656 C 92.401 166.133,96.894 161.536,99.691 163.604 C 100.325 164.072,101.725 164.718,102.803 165.038 C 103.880 165.358,105.266 166.040,105.881 166.554 C 106.496 167.067,107.630 167.803,108.400 168.189 C 109.170 168.575,110.250 169.306,110.800 169.812 C 111.350 170.319,112.813 171.025,114.051 171.381 C 115.289 171.737,116.615 172.375,116.999 172.799 C 117.871 173.763,119.411 174.257,123.054 174.742 C 124.623 174.951,126.771 175.504,127.826 175.970 C 132.209 177.909,145.600 178.109,145.600 176.235 C 145.600 175.399,142.926 172.800,142.066 172.800 C 140.277 172.800,137.150 171.890,135.808 170.979 C 135.031 170.452,133.271 169.732,131.897 169.379 C 130.524 169.026,128.950 168.316,128.400 167.800 C 127.850 167.284,126.746 166.742,125.947 166.596 C 124.354 166.303,122.000 165.023,122.000 164.449 C 122.000 164.250,121.235 163.783,120.300 163.413 C 119.365 163.042,118.150 162.326,117.600 161.822 C 117.050 161.318,115.744 160.415,114.698 159.814 C 113.652 159.213,112.662 158.488,112.498 158.202 C 112.334 157.916,111.533 157.291,110.718 156.812 C 109.902 156.334,109.127 155.600,108.994 155.181 C 108.861 154.763,108.228 154.047,107.588 153.591 C 106.947 153.135,106.109 152.230,105.725 151.580 C 105.341 150.931,104.702 150.296,104.305 150.170 C 103.908 150.044,103.117 149.009,102.548 147.870 C 101.978 146.732,101.186 145.440,100.788 145.000 C 99.961 144.087,99.050 139.684,99.453 138.553 C 100.276 136.245,102.855 135.868,106.862 137.471 M126.080 221.640 C 127.246 221.882,128.984 222.530,129.943 223.082 C 131.287 223.855,132.659 224.181,135.943 224.509 L 140.200 224.935 141.897 226.624 C 142.920 227.642,143.939 229.214,144.460 230.577 C 144.936 231.821,145.670 233.023,146.089 233.248 C 146.509 233.472,147.187 234.437,147.596 235.392 C 148.005 236.346,148.627 237.287,148.977 237.483 C 149.328 237.680,149.926 238.418,150.307 239.124 C 151.267 240.902,159.996 249.583,161.104 249.862 C 161.602 249.987,162.369 250.595,162.810 251.214 C 163.250 251.833,164.155 252.458,164.819 252.604 C 165.483 252.750,166.305 253.293,166.644 253.812 C 167.010 254.369,168.356 255.172,169.943 255.778 C 171.418 256.342,172.908 257.134,173.254 257.538 C 173.617 257.962,174.960 258.485,176.430 258.774 C 177.831 259.050,179.977 259.795,181.198 260.431 C 183.735 261.751,186.917 262.190,198.298 262.788 C 203.051 263.038,205.443 263.325,205.993 263.710 C 206.901 264.346,207.310 264.028,202.800 266.192 C 201.590 266.772,199.936 267.606,199.124 268.045 C 195.339 270.091,171.767 269.869,168.491 267.756 C 167.625 267.197,165.655 266.760,161.541 266.211 C 160.518 266.075,158.898 265.450,157.941 264.822 C 156.983 264.194,155.139 263.464,153.841 263.200 C 152.296 262.885,151.130 262.366,150.459 261.696 C 149.896 261.133,148.620 260.427,147.624 260.127 C 146.627 259.827,145.089 259.094,144.206 258.499 C 143.323 257.903,141.925 257.106,141.100 256.728 C 140.275 256.349,139.600 255.867,139.600 255.658 C 139.600 255.448,138.820 254.819,137.867 254.260 C 135.710 252.996,131.737 248.485,130.747 246.174 C 130.470 245.528,129.768 244.541,129.186 243.981 C 128.604 243.421,127.789 242.071,127.376 240.981 C 126.962 239.891,126.297 238.730,125.897 238.400 C 125.498 238.070,124.892 236.728,124.552 235.417 C 124.211 234.107,123.510 232.534,122.995 231.921 C 122.474 231.302,121.856 229.786,121.603 228.504 C 121.352 227.237,120.966 225.618,120.745 224.906 C 119.779 221.804,121.574 220.705,126.080 221.640 M278.711 221.823 C 279.721 222.530,279.791 223.198,279.139 225.894 C 278.886 226.942,278.517 228.484,278.318 229.321 C 278.120 230.158,277.592 231.208,277.144 231.656 C 276.696 232.104,276.001 233.657,275.598 235.108 C 275.196 236.559,274.522 238.028,274.099 238.373 C 273.677 238.718,273.008 239.900,272.612 241.000 C 272.216 242.100,271.377 243.485,270.746 244.077 C 270.116 244.670,269.600 245.429,269.600 245.764 C 269.600 246.098,269.031 247.020,268.336 247.812 C 267.641 248.604,266.786 249.783,266.436 250.432 C 264.911 253.260,253.344 264.811,250.400 266.445 C 249.850 266.750,248.724 267.585,247.899 268.300 C 247.073 269.015,246.134 269.600,245.813 269.600 C 245.491 269.600,244.696 270.119,244.047 270.754 C 243.397 271.389,241.996 272.229,240.933 272.620 C 239.870 273.012,238.730 273.634,238.400 274.002 C 237.750 274.728,236.364 275.316,233.700 275.997 C 232.765 276.235,232.000 276.599,232.000 276.805 C 232.000 277.417,229.946 278.296,227.427 278.761 C 226.130 279.001,223.974 279.730,222.635 280.382 C 220.656 281.345,219.338 281.647,215.600 281.989 C 213.070 282.221,208.847 282.700,206.216 283.053 C 201.160 283.731,199.456 283.686,190.000 282.629 C 180.235 281.537,178.695 281.272,177.628 280.502 C 176.520 279.703,174.416 279.028,171.686 278.596 C 170.743 278.447,169.448 277.884,168.808 277.345 C 168.168 276.807,166.419 275.968,164.922 275.483 C 162.498 274.696,162.117 274.430,161.440 273.042 C 160.970 272.081,160.243 271.320,159.540 271.055 C 157.973 270.463,158.112 270.000,159.856 270.000 C 160.736 270.000,161.499 270.256,161.786 270.648 C 162.155 271.153,163.408 271.371,167.482 271.636 C 170.355 271.824,174.345 272.342,176.348 272.788 C 180.857 273.793,188.173 273.879,192.000 272.972 C 193.430 272.634,197.111 272.006,200.179 271.578 C 204.641 270.955,206.043 270.602,207.179 269.816 C 207.961 269.275,209.840 268.546,211.355 268.195 C 212.870 267.844,214.670 267.139,215.355 266.629 C 216.040 266.118,217.545 265.394,218.700 265.018 C 219.855 264.643,221.028 264.010,221.306 263.612 C 221.585 263.214,222.440 262.625,223.207 262.302 C 223.973 261.980,225.369 261.071,226.309 260.282 C 227.249 259.493,228.419 258.727,228.909 258.578 C 229.399 258.430,230.301 257.834,230.914 257.254 C 231.527 256.674,232.850 255.480,233.854 254.600 C 234.858 253.720,236.354 252.325,237.178 251.500 C 238.003 250.675,238.856 250.000,239.074 250.000 C 239.293 250.000,240.110 249.325,240.890 248.500 C 241.670 247.675,243.094 246.259,244.054 245.354 C 247.236 242.353,250.000 239.243,250.000 238.663 C 250.000 238.349,250.454 237.794,251.009 237.431 C 251.565 237.067,252.306 236.051,252.657 235.173 C 253.009 234.295,253.625 233.400,254.028 233.185 C 254.430 232.970,255.140 231.749,255.606 230.473 C 257.123 226.311,258.785 225.143,264.045 224.543 C 267.203 224.183,268.831 223.799,269.843 223.174 C 272.718 221.397,277.141 220.723,278.711 221.823 " stroke="none" fill="#f204f2" fill-rule="evenodd"></path><path id="path1" d="M189.477 118.657 C 185.246 119.024,182.401 119.481,180.877 120.037 C 179.625 120.495,176.800 121.352,174.600 121.944 C 172.400 122.535,170.060 123.398,169.400 123.862 C 168.740 124.327,167.300 124.934,166.200 125.213 C 165.100 125.491,163.623 126.145,162.918 126.666 C 162.213 127.186,160.793 127.974,159.762 128.416 C 158.731 128.858,157.327 129.677,156.643 130.237 C 155.960 130.796,154.350 131.939,153.068 132.778 C 150.288 134.596,146.574 137.554,144.127 139.900 C 143.151 140.835,142.184 141.600,141.976 141.600 C 141.496 141.600,141.496 143.617,141.976 144.375 C 142.934 145.888,164.606 144.295,169.200 142.374 C 170.190 141.960,172.404 141.243,174.121 140.781 C 175.837 140.318,178.087 139.501,179.121 138.965 C 180.254 138.378,182.826 137.679,185.600 137.206 C 188.130 136.775,191.460 136.150,193.000 135.818 C 194.540 135.486,197.690 135.214,200.000 135.214 C 202.310 135.214,205.460 135.486,207.000 135.818 C 208.540 136.150,211.860 136.773,214.379 137.203 C 217.139 137.674,219.760 138.387,220.979 138.998 C 222.090 139.556,224.530 140.448,226.400 140.979 C 228.270 141.511,230.538 142.218,231.440 142.550 C 235.354 143.993,254.213 145.674,257.187 144.845 C 258.736 144.413,259.026 142.240,257.654 141.341 C 257.082 140.966,256.056 140.106,255.374 139.430 C 252.244 136.327,248.095 133.137,245.252 131.649 C 244.673 131.346,243.750 130.681,243.200 130.171 C 242.650 129.661,241.210 128.785,240.000 128.225 C 238.790 127.665,237.350 126.851,236.800 126.417 C 236.250 125.982,234.900 125.404,233.800 125.131 C 232.700 124.858,231.264 124.271,230.609 123.825 C 229.954 123.380,227.614 122.533,225.409 121.942 C 223.204 121.352,220.401 120.503,219.179 120.056 C 214.411 118.312,200.823 117.672,189.477 118.657 M100.699 138.289 C 99.816 139.267,100.280 142.383,101.508 143.724 C 101.949 144.206,102.709 145.410,103.196 146.400 C 103.684 147.390,104.678 148.830,105.406 149.600 C 106.134 150.370,107.690 152.023,108.865 153.274 C 111.029 155.579,112.045 156.399,116.000 159.037 C 117.210 159.843,118.262 160.666,118.337 160.864 C 118.413 161.062,119.377 161.682,120.480 162.240 C 121.583 162.799,123.213 163.784,124.103 164.428 C 124.992 165.073,125.923 165.600,126.171 165.600 C 126.419 165.600,127.923 166.223,129.512 166.985 C 131.102 167.747,133.166 168.571,134.101 168.817 C 135.035 169.063,136.406 169.616,137.147 170.046 C 137.887 170.476,139.867 171.202,141.547 171.660 C 145.968 172.865,147.393 174.300,146.613 176.760 C 145.866 179.113,130.539 179.013,124.841 176.619 C 123.608 176.101,121.430 175.450,120.000 175.171 C 118.570 174.893,116.770 174.257,116.000 173.756 C 115.230 173.256,113.595 172.475,112.366 172.019 C 111.137 171.564,109.711 170.744,109.196 170.196 C 108.682 169.648,108.054 169.200,107.801 169.200 C 107.548 169.200,106.458 168.572,105.379 167.805 C 101.196 164.831,96.976 164.338,96.223 166.736 C 95.786 168.124,97.877 173.347,99.260 174.323 C 99.667 174.610,100.000 175.128,100.000 175.472 C 100.000 176.179,107.528 183.676,109.270 184.705 C 109.892 185.072,110.400 185.511,110.400 185.680 C 110.400 185.848,111.293 186.439,112.385 186.993 C 113.477 187.546,114.962 188.508,115.685 189.130 C 116.408 189.753,117.740 190.552,118.645 190.906 C 119.550 191.260,120.970 192.011,121.801 192.575 C 122.632 193.139,123.632 193.600,124.023 193.600 C 124.414 193.600,125.886 194.211,127.294 194.958 C 128.702 195.705,130.922 196.592,132.227 196.929 C 139.385 198.779,142.061 200.842,140.745 203.495 C 139.430 206.145,133.200 206.809,127.200 204.939 C 126.210 204.631,123.693 204.019,121.607 203.579 C 119.156 203.063,117.276 202.407,116.294 201.726 C 114.426 200.432,108.160 198.970,107.352 199.639 C 105.282 201.358,108.277 206.191,113.507 209.571 C 114.825 210.423,116.025 211.318,116.175 211.559 C 116.324 211.800,117.330 212.378,118.410 212.843 C 119.491 213.307,120.581 213.937,120.834 214.241 C 121.086 214.545,122.577 215.175,124.146 215.642 C 125.716 216.108,127.661 216.826,128.469 217.237 C 129.276 217.648,132.518 218.428,135.672 218.971 C 144.024 220.409,146.237 221.504,147.390 224.771 C 147.720 225.707,148.442 227.010,148.995 227.667 C 149.548 228.324,150.000 229.181,150.000 229.571 C 150.000 229.961,150.585 231.051,151.300 231.994 C 152.015 232.937,152.903 234.179,153.273 234.754 C 154.825 237.163,163.979 246.400,164.816 246.400 C 164.974 246.400,166.147 247.210,167.422 248.200 C 168.697 249.190,170.044 250.000,170.415 250.000 C 170.786 250.000,171.756 250.529,172.570 251.176 C 173.384 251.823,174.984 252.653,176.125 253.021 C 177.266 253.389,178.977 254.134,179.927 254.678 C 181.031 255.309,183.480 256.008,186.727 256.619 C 189.517 257.144,192.520 257.755,193.400 257.977 C 198.560 259.279,215.965 257.100,220.200 254.621 C 221.080 254.106,222.540 253.485,223.445 253.241 C 224.350 252.998,225.777 252.332,226.617 251.762 C 227.457 251.192,229.057 250.294,230.172 249.766 C 236.175 246.926,246.649 236.396,250.032 229.800 C 254.800 220.506,254.504 220.728,264.427 218.978 C 267.412 218.451,270.832 217.590,272.027 217.064 C 273.222 216.538,275.190 215.814,276.400 215.456 C 277.610 215.098,279.392 214.264,280.360 213.603 C 281.328 212.941,282.322 212.400,282.568 212.400 C 282.813 212.400,283.860 211.725,284.892 210.900 C 285.925 210.075,287.461 208.932,288.306 208.360 C 291.848 205.962,294.226 201.652,292.900 200.035 L 292.200 199.182 288.713 199.927 C 286.556 200.389,284.647 201.074,283.706 201.726 C 282.711 202.416,280.876 203.050,278.393 203.561 C 276.307 203.991,274.060 204.548,273.400 204.800 C 268.483 206.675,260.718 206.191,259.568 203.937 C 258.025 200.913,260.599 198.743,267.800 196.992 C 269.340 196.617,271.245 195.898,272.033 195.394 C 272.821 194.890,274.351 194.179,275.433 193.814 C 276.515 193.449,277.850 192.847,278.400 192.476 C 278.950 192.105,280.291 191.416,281.380 190.944 C 282.469 190.473,283.729 189.733,284.180 189.301 C 284.631 188.868,285.733 188.142,286.628 187.686 C 290.035 185.952,297.482 179.366,299.842 176.000 C 300.381 175.230,301.259 174.002,301.792 173.270 C 302.697 172.028,304.000 168.391,304.000 167.108 C 304.000 166.795,303.551 166.117,303.002 165.602 L 302.003 164.664 299.209 165.597 C 297.672 166.110,295.569 167.131,294.537 167.865 C 293.504 168.599,292.452 169.200,292.199 169.200 C 291.946 169.200,291.318 169.648,290.804 170.196 C 290.289 170.744,288.863 171.562,287.634 172.014 C 286.405 172.466,284.881 173.211,284.247 173.669 C 283.613 174.127,281.602 174.828,279.778 175.227 C 277.955 175.625,275.669 176.313,274.699 176.755 C 270.659 178.595,256.066 179.127,254.227 177.500 C 251.783 175.339,253.792 172.746,258.800 171.597 C 260.010 171.319,261.720 170.685,262.600 170.187 C 263.480 169.689,265.280 168.978,266.600 168.606 C 267.920 168.234,269.560 167.586,270.244 167.167 C 270.928 166.747,272.218 166.146,273.111 165.831 C 274.003 165.517,275.669 164.616,276.812 163.829 C 277.955 163.043,279.127 162.400,279.418 162.400 C 279.708 162.400,280.723 161.761,281.673 160.979 C 282.623 160.198,284.849 158.509,286.620 157.226 C 290.257 154.591,295.338 149.191,296.986 146.208 C 297.592 145.112,298.423 143.788,298.833 143.267 C 299.837 141.991,300.210 139.779,299.634 138.515 C 298.660 136.378,295.001 137.509,288.692 141.898 C 287.981 142.393,286.488 143.231,285.372 143.761 C 284.257 144.292,282.678 145.179,281.862 145.732 C 281.047 146.285,279.439 146.938,278.290 147.183 C 277.140 147.428,275.329 148.082,274.265 148.636 C 268.361 151.712,236.979 151.840,230.143 148.816 C 229.094 148.352,226.968 147.684,225.420 147.332 C 223.871 146.980,221.614 146.173,220.402 145.540 C 219.105 144.862,216.780 144.143,214.744 143.789 C 212.844 143.459,210.414 142.904,209.344 142.556 C 208.111 142.154,205.280 141.849,201.600 141.720 C 196.085 141.527,194.411 141.683,190.000 142.804 C 189.010 143.055,186.760 143.516,185.000 143.828 C 183.240 144.139,180.900 144.870,179.800 145.450 C 178.700 146.031,176.270 146.919,174.400 147.424 C 172.530 147.929,169.920 148.700,168.600 149.136 C 160.137 151.933,131.511 151.595,125.659 148.630 C 124.559 148.073,122.791 147.424,121.730 147.188 C 120.668 146.952,119.170 146.332,118.400 145.810 C 117.630 145.287,115.965 144.375,114.700 143.783 C 113.435 143.191,112.400 142.556,112.400 142.372 C 112.400 142.188,111.586 141.677,110.591 141.237 C 109.597 140.797,108.013 139.885,107.073 139.210 C 104.824 137.594,101.731 137.147,100.699 138.289 M275.567 222.404 C 274.999 222.564,273.469 223.151,272.167 223.708 C 270.691 224.339,268.094 224.942,265.266 225.310 C 259.987 225.997,257.842 227.460,256.590 231.230 C 256.247 232.262,255.596 233.442,255.143 233.852 C 254.689 234.262,254.040 235.139,253.700 235.799 C 253.361 236.460,252.389 237.790,251.541 238.756 C 250.694 239.722,250.000 240.684,250.000 240.892 C 250.000 241.944,232.012 258.357,229.371 259.715 C 228.695 260.063,227.896 260.643,227.596 261.005 C 227.296 261.366,226.139 262.118,225.025 262.674 C 223.911 263.231,222.550 264.087,222.000 264.577 C 221.450 265.067,220.100 265.798,219.000 266.202 C 217.900 266.605,216.550 267.264,216.000 267.666 C 215.450 268.069,213.779 268.736,212.287 269.149 C 210.795 269.562,209.240 270.201,208.833 270.570 C 208.426 270.938,206.587 271.525,204.747 271.874 C 202.906 272.223,199.690 272.979,197.600 273.554 C 192.053 275.081,176.292 275.144,171.675 273.659 C 167.523 272.323,162.865 272.487,163.761 273.937 C 163.899 274.161,165.045 274.469,166.306 274.622 C 168.935 274.941,170.000 275.391,170.000 276.182 C 170.000 276.741,172.072 277.528,175.800 278.385 C 176.900 278.637,178.880 279.272,180.200 279.795 C 187.316 282.613,212.508 282.508,220.326 279.628 C 222.017 279.006,224.480 278.277,225.800 278.008 C 227.120 277.740,229.100 277.018,230.200 276.404 C 231.300 275.791,233.203 275.003,234.430 274.653 C 235.656 274.304,236.983 273.661,237.378 273.224 C 237.773 272.788,238.750 272.224,239.548 271.971 C 240.347 271.719,241.634 271.017,242.408 270.411 C 243.183 269.806,244.561 268.930,245.471 268.466 C 246.381 268.001,247.188 267.464,247.263 267.271 C 247.338 267.079,248.054 266.489,248.853 265.961 C 251.184 264.420,255.608 260.712,258.160 258.160 C 260.712 255.608,264.420 251.184,265.961 248.853 C 266.489 248.054,267.079 247.338,267.271 247.263 C 267.464 247.188,268.001 246.381,268.466 245.471 C 268.930 244.561,269.806 243.183,270.411 242.408 C 271.017 241.634,271.722 240.339,271.977 239.532 C 272.232 238.725,272.714 237.838,273.047 237.561 C 273.868 236.879,274.800 235.015,274.800 234.053 C 274.800 233.620,275.410 232.117,276.155 230.712 C 279.072 225.214,278.808 221.492,275.567 222.404 M122.347 223.063 C 121.528 224.001,122.313 228.345,123.621 230.114 C 124.080 230.734,124.717 232.267,125.038 233.521 C 125.359 234.774,125.983 236.250,126.424 236.800 C 126.865 237.350,127.684 238.783,128.245 239.984 C 128.805 241.184,129.789 242.766,130.432 243.497 C 131.074 244.229,131.600 245.000,131.600 245.209 C 131.600 245.896,135.205 250.350,136.922 251.784 C 137.845 252.554,139.466 253.909,140.524 254.793 C 141.583 255.677,142.673 256.400,142.947 256.400 C 143.220 256.400,144.055 256.850,144.801 257.401 C 145.547 257.951,147.086 258.749,148.221 259.173 C 149.355 259.598,150.938 260.389,151.737 260.932 C 152.537 261.474,154.138 262.142,155.295 262.416 C 156.453 262.690,158.337 263.411,159.483 264.018 C 160.629 264.625,162.879 265.337,164.483 265.599 C 166.087 265.861,169.200 266.521,171.400 267.065 C 176.367 268.294,187.171 268.789,192.390 268.026 C 196.947 267.359,197.040 267.309,195.922 266.111 C 194.488 264.575,193.320 264.134,188.800 263.417 C 182.185 262.367,180.744 262.030,179.430 261.225 C 178.753 260.811,176.898 260.080,175.307 259.600 C 173.716 259.119,172.006 258.411,171.507 258.026 C 171.008 257.640,169.761 257.008,168.736 256.622 C 167.711 256.235,166.372 255.397,165.761 254.759 C 165.150 254.122,164.429 253.600,164.158 253.600 C 163.887 253.600,162.716 252.790,161.557 251.800 C 160.397 250.810,159.300 250.000,159.119 250.000 C 158.938 250.000,157.152 248.425,155.151 246.500 C 151.903 243.375,149.941 241.006,147.400 237.139 C 146.960 236.470,146.042 235.265,145.361 234.461 C 144.679 233.657,143.808 232.167,143.425 231.148 C 141.853 226.969,137.609 224.823,130.875 224.803 C 130.367 224.801,128.977 224.340,127.788 223.777 C 124.773 222.350,123.155 222.138,122.347 223.063 M226.676 225.900 C 226.575 226.285,226.493 225.970,226.493 225.200 C 226.493 224.430,226.575 224.115,226.676 224.500 C 226.776 224.885,226.776 225.515,226.676 225.900 M0.000 398.600 L 0.000 400.000 18.600 400.000 L 37.200 400.000 37.200 399.080 C 37.200 397.189,37.313 397.200,18.120 397.200 L 0.000 397.200 0.000 398.600 M153.614 397.974 C 152.515 400.028,152.370 400.000,164.000 400.000 L 174.800 400.000 174.800 399.080 C 174.800 397.266,174.416 397.200,163.934 397.200 C 154.550 397.200,154.006 397.241,153.614 397.974 M288.014 397.974 C 286.879 400.096,285.946 400.000,307.800 400.000 L 328.000 400.000 328.000 399.080 C 328.000 397.183,328.186 397.200,307.734 397.200 C 289.056 397.200,288.415 397.225,288.014 397.974 " stroke="none" fill="#5c045c" fill-rule="evenodd"></path><path id="path2" d="M195.600 116.621 C 194.544 116.848,186.320 117.965,182.647 118.382 C 180.168 118.663,178.355 119.139,176.647 119.957 C 175.301 120.602,173.390 121.254,172.400 121.406 C 170.434 121.708,168.000 122.705,168.000 123.208 C 168.000 123.572,164.593 124.800,163.583 124.800 C 163.212 124.800,162.480 125.219,161.955 125.731 C 161.430 126.242,160.190 126.976,159.200 127.360 C 158.210 127.745,156.860 128.558,156.200 129.167 C 155.540 129.776,154.421 130.502,153.713 130.780 C 153.006 131.058,152.198 131.561,151.919 131.897 C 151.640 132.234,150.689 132.956,149.806 133.503 C 148.046 134.593,147.217 135.316,142.900 139.531 C 139.612 142.740,138.977 144.838,140.889 146.177 C 142.148 147.059,152.801 147.048,156.200 146.161 C 158.983 145.435,163.272 144.665,167.747 144.088 C 169.822 143.820,171.282 143.394,172.034 142.838 C 172.662 142.374,174.468 141.722,176.048 141.390 C 177.629 141.057,179.389 140.525,179.961 140.207 C 182.588 138.745,183.814 138.457,190.000 137.844 C 201.340 136.721,217.851 137.740,219.022 139.636 C 219.378 140.212,220.917 140.751,224.134 141.428 C 225.648 141.747,227.401 142.374,228.030 142.821 C 229.192 143.649,230.816 143.988,237.600 144.820 C 239.690 145.077,241.580 145.426,241.800 145.597 C 243.452 146.877,257.442 147.346,259.111 146.177 C 261.750 144.329,257.422 137.897,250.881 133.947 C 250.066 133.456,248.827 132.562,248.126 131.962 C 247.426 131.362,246.436 130.744,245.926 130.589 C 245.417 130.435,244.541 129.818,243.981 129.218 C 243.421 128.619,242.071 127.789,240.981 127.376 C 239.891 126.962,238.730 126.297,238.400 125.897 C 238.070 125.498,236.720 124.893,235.400 124.552 C 234.080 124.212,232.617 123.577,232.148 123.142 C 231.250 122.308,228.081 121.200,226.593 121.200 C 226.109 121.200,224.699 120.659,223.459 119.997 C 221.524 118.965,220.259 118.677,214.503 117.960 C 210.816 117.500,206.810 116.977,205.600 116.796 C 203.466 116.477,196.815 116.361,195.600 116.621 M209.859 118.622 C 214.684 119.045,217.670 119.504,219.179 120.056 C 220.401 120.503,223.204 121.352,225.409 121.942 C 227.614 122.533,229.954 123.380,230.609 123.825 C 231.264 124.271,232.700 124.858,233.800 125.131 C 234.900 125.404,236.250 125.982,236.800 126.417 C 237.350 126.851,238.790 127.665,240.000 128.225 C 241.210 128.785,242.650 129.661,243.200 130.171 C 243.750 130.681,244.673 131.346,245.252 131.649 C 248.095 133.137,252.244 136.327,255.374 139.430 C 256.056 140.106,257.082 140.966,257.654 141.341 C 259.026 142.240,258.736 144.413,257.187 144.845 C 254.213 145.674,235.354 143.993,231.440 142.550 C 230.538 142.218,228.270 141.511,226.400 140.979 C 224.530 140.448,222.090 139.556,220.979 138.998 C 219.760 138.387,217.139 137.674,214.379 137.203 C 211.860 136.773,208.540 136.150,207.000 135.818 C 205.460 135.486,202.310 135.214,200.000 135.214 C 197.690 135.214,194.540 135.486,193.000 135.818 C 191.460 136.150,188.130 136.775,185.600 137.206 C 182.826 137.679,180.254 138.378,179.121 138.965 C 178.087 139.501,175.837 140.318,174.121 140.781 C 172.404 141.243,170.190 141.960,169.200 142.374 C 164.606 144.295,142.934 145.888,141.976 144.375 C 141.496 143.617,141.496 141.600,141.976 141.600 C 142.184 141.600,143.151 140.835,144.127 139.900 C 146.574 137.554,150.288 134.596,153.068 132.778 C 154.350 131.939,155.960 130.796,156.643 130.237 C 157.327 129.677,158.731 128.858,159.762 128.416 C 160.793 127.974,162.213 127.186,162.918 126.666 C 163.623 126.145,165.100 125.491,166.200 125.213 C 167.300 124.934,168.740 124.327,169.400 123.862 C 170.060 123.398,172.400 122.535,174.600 121.944 C 176.800 121.352,179.625 120.495,180.877 120.037 C 185.584 118.318,198.946 117.666,209.859 118.622 M100.354 137.066 C 98.976 138.666,99.228 143.277,100.788 145.000 C 101.186 145.440,101.978 146.732,102.548 147.870 C 103.117 149.009,103.908 150.044,104.305 150.170 C 104.702 150.296,105.341 150.931,105.725 151.580 C 106.109 152.230,106.947 153.135,107.588 153.591 C 108.228 154.047,108.861 154.763,108.994 155.181 C 109.127 155.600,109.902 156.334,110.718 156.812 C 111.533 157.291,112.334 157.916,112.498 158.202 C 112.662 158.488,113.652 159.213,114.698 159.814 C 115.744 160.415,117.050 161.318,117.600 161.822 C 118.150 162.326,119.365 163.042,120.300 163.413 C 121.235 163.783,122.000 164.250,122.000 164.449 C 122.000 165.023,124.354 166.303,125.947 166.596 C 126.746 166.742,127.850 167.284,128.400 167.800 C 128.950 168.316,130.524 169.026,131.897 169.379 C 133.271 169.732,135.031 170.452,135.808 170.979 C 137.150 171.890,140.277 172.800,142.066 172.800 C 142.926 172.800,145.600 175.399,145.600 176.235 C 145.600 178.109,132.209 177.909,127.826 175.970 C 126.771 175.504,124.623 174.951,123.054 174.742 C 119.411 174.257,117.871 173.763,116.999 172.799 C 116.615 172.375,115.289 171.737,114.051 171.381 C 112.813 171.025,111.350 170.319,110.800 169.812 C 110.250 169.306,109.170 168.575,108.400 168.189 C 107.630 167.803,106.496 167.067,105.881 166.554 C 105.266 166.040,103.880 165.358,102.803 165.038 C 101.725 164.718,100.325 164.072,99.691 163.604 C 96.894 161.536,92.401 166.133,94.752 168.656 C 95.165 169.100,95.788 170.439,96.136 171.631 C 96.559 173.083,97.236 174.241,98.185 175.133 C 98.964 175.866,99.709 176.895,99.840 177.419 C 99.972 177.943,100.428 178.482,100.855 178.617 C 101.281 178.753,102.076 179.569,102.620 180.432 C 103.165 181.294,103.869 182.000,104.185 182.000 C 104.501 182.000,105.240 182.630,105.827 183.400 C 106.414 184.170,107.108 184.800,107.369 184.800 C 107.630 184.800,108.448 185.424,109.187 186.187 C 109.927 186.950,111.298 187.934,112.235 188.375 C 113.172 188.815,114.382 189.618,114.924 190.160 C 115.465 190.701,116.649 191.344,117.554 191.588 C 118.459 191.831,119.200 192.200,119.200 192.407 C 119.200 192.894,122.147 194.400,123.098 194.400 C 123.499 194.400,124.790 195.020,125.966 195.778 C 127.811 196.967,130.869 198.000,132.542 198.000 C 132.818 198.000,133.624 198.428,134.333 198.951 C 135.042 199.473,136.377 200.022,137.300 200.170 C 139.786 200.567,140.535 201.378,139.775 202.849 C 138.934 204.474,136.269 204.543,126.800 203.182 C 118.920 202.049,118.922 202.050,117.712 201.051 C 117.100 200.547,115.278 199.818,113.663 199.431 C 112.047 199.045,110.110 198.366,109.357 197.922 C 106.803 196.415,104.626 199.390,105.688 202.937 C 106.227 204.734,110.069 208.916,112.666 210.531 C 113.583 211.101,114.458 211.770,114.610 212.017 C 114.763 212.264,115.653 212.794,116.587 213.195 C 117.522 213.595,118.736 214.372,119.285 214.921 C 119.931 215.568,121.113 216.086,122.641 216.394 C 123.939 216.656,125.631 217.298,126.403 217.822 C 127.398 218.497,129.027 218.965,132.003 219.429 C 134.311 219.788,136.740 220.331,137.400 220.636 C 138.060 220.940,140.021 221.550,141.757 221.992 C 145.562 222.961,145.787 223.129,146.369 225.444 C 146.621 226.445,147.288 227.725,147.851 228.288 C 148.414 228.850,149.135 230.048,149.453 230.950 C 149.771 231.851,150.452 233.041,150.967 233.594 C 151.482 234.147,152.377 235.365,152.957 236.300 C 153.536 237.235,154.186 238.000,154.400 238.000 C 154.614 238.000,155.235 238.706,155.780 239.568 C 156.324 240.431,157.092 241.240,157.485 241.367 C 157.878 241.494,158.508 242.140,158.883 242.803 C 159.259 243.465,159.993 244.169,160.514 244.367 C 161.034 244.565,161.763 245.190,162.134 245.755 C 162.504 246.321,163.391 247.082,164.104 247.447 C 164.817 247.812,165.970 248.607,166.666 249.213 C 167.362 249.819,168.622 250.537,169.466 250.808 C 170.310 251.079,171.360 251.711,171.800 252.211 C 172.240 252.712,173.590 253.429,174.800 253.805 C 176.010 254.180,177.645 254.921,178.433 255.451 C 179.292 256.029,181.374 256.726,183.633 257.190 C 185.705 257.616,188.750 258.344,190.400 258.807 C 194.683 260.008,207.782 259.811,211.200 258.494 C 212.410 258.027,214.570 257.450,216.000 257.212 C 219.002 256.711,222.000 255.695,222.000 255.178 C 222.000 254.983,223.239 254.447,224.754 253.987 C 226.295 253.519,227.901 252.731,228.402 252.198 C 228.894 251.674,230.175 250.930,231.248 250.544 C 232.322 250.158,233.200 249.694,233.200 249.512 C 233.200 249.331,234.049 248.644,235.086 247.987 C 236.123 247.329,237.458 246.298,238.053 245.695 C 238.648 245.093,239.690 244.181,240.367 243.670 C 241.045 243.158,241.600 242.483,241.600 242.170 C 241.600 241.856,241.856 241.600,242.170 241.600 C 242.483 241.600,243.158 241.045,243.670 240.367 C 244.181 239.690,245.093 238.648,245.695 238.053 C 246.298 237.458,247.329 236.123,247.987 235.086 C 248.644 234.049,249.338 233.200,249.527 233.200 C 249.717 233.200,250.119 232.451,250.421 231.536 C 250.723 230.621,251.546 229.183,252.249 228.341 C 252.970 227.478,253.645 226.120,253.795 225.228 C 254.137 223.208,254.500 222.932,257.843 222.158 C 259.359 221.807,261.410 221.195,262.400 220.798 C 263.390 220.402,265.983 219.795,268.162 219.451 C 270.904 219.017,272.574 218.526,273.587 217.856 C 274.392 217.324,276.072 216.676,277.320 216.417 C 278.858 216.097,280.119 215.503,281.233 214.573 C 282.136 213.818,283.122 213.200,283.424 213.200 C 283.725 213.200,284.563 212.702,285.286 212.093 C 286.009 211.484,287.545 210.359,288.699 209.593 C 289.854 208.827,290.799 208.095,290.799 207.967 C 290.800 207.838,291.514 206.960,292.386 206.015 C 295.071 203.107,295.472 199.947,293.405 198.004 L 292.422 197.081 290.089 198.128 C 288.805 198.704,286.777 199.385,285.580 199.642 C 284.384 199.898,282.828 200.548,282.123 201.086 C 280.369 202.424,268.745 204.176,262.549 204.037 C 259.964 203.979,258.983 200.407,261.549 200.398 C 262.795 200.393,265.090 199.590,265.926 198.864 C 266.389 198.462,268.030 197.908,269.572 197.633 C 271.515 197.285,272.807 196.789,273.781 196.015 C 274.554 195.401,276.044 194.685,277.093 194.425 C 278.142 194.165,279.630 193.452,280.400 192.842 C 281.170 192.231,282.292 191.609,282.893 191.460 C 283.494 191.311,284.574 190.696,285.293 190.094 C 286.012 189.492,287.430 188.583,288.444 188.074 C 289.458 187.565,290.678 186.620,291.156 185.974 C 291.633 185.328,292.243 184.800,292.512 184.800 C 292.780 184.800,293.540 184.262,294.200 183.605 C 294.860 182.947,296.425 181.427,297.679 180.226 C 298.932 179.025,300.236 177.504,300.576 176.846 C 300.917 176.187,301.528 175.413,301.934 175.124 C 302.864 174.464,303.506 173.261,304.232 170.817 C 304.546 169.760,305.072 168.672,305.401 168.399 C 307.997 166.245,302.930 161.524,300.269 163.617 C 299.698 164.066,298.321 164.704,297.210 165.034 C 296.098 165.364,294.606 166.142,293.894 166.763 C 293.182 167.384,292.183 168.022,291.674 168.181 C 291.164 168.340,290.170 168.978,289.463 169.598 C 288.757 170.218,287.164 171.021,285.923 171.381 C 284.682 171.742,283.427 172.327,283.134 172.681 C 282.325 173.656,280.445 174.312,277.583 174.617 C 276.162 174.769,273.891 175.328,272.535 175.860 C 268.764 177.339,260.487 178.048,256.200 177.259 C 252.774 176.629,254.988 173.567,259.566 172.606 C 261.197 172.263,263.447 171.469,264.566 170.840 C 265.685 170.210,267.526 169.481,268.658 169.218 C 269.850 168.941,271.101 168.332,271.628 167.770 C 272.129 167.237,272.733 166.799,272.970 166.798 C 274.234 166.791,276.578 165.821,277.711 164.834 C 278.420 164.217,279.855 163.337,280.900 162.879 C 281.945 162.420,282.800 161.859,282.800 161.631 C 282.800 161.403,283.504 160.857,284.364 160.419 C 285.940 159.614,289.031 157.229,290.707 155.523 C 291.206 155.015,291.881 154.330,292.207 154.000 C 292.533 153.670,293.115 153.073,293.500 152.673 C 293.885 152.273,294.766 151.358,295.458 150.639 C 296.150 149.921,297.115 148.538,297.603 147.567 C 298.091 146.595,298.833 145.425,299.252 144.967 C 300.904 143.160,301.188 138.445,299.733 136.990 C 298.573 135.830,292.014 137.143,291.436 138.651 C 291.312 138.975,290.231 139.672,289.035 140.201 C 287.839 140.730,286.712 141.412,286.530 141.716 C 286.349 142.019,285.235 142.610,284.056 143.029 C 282.877 143.447,281.466 144.203,280.920 144.709 C 280.336 145.251,278.834 145.874,277.264 146.227 C 274.150 146.928,272.436 147.535,271.600 148.233 C 268.776 150.591,237.176 150.419,232.508 148.020 C 231.678 147.594,229.380 146.949,227.400 146.586 C 224.951 146.137,223.260 145.571,222.111 144.816 C 220.969 144.065,219.277 143.496,216.884 143.058 C 214.937 142.702,212.817 142.152,212.172 141.835 C 208.442 140.002,193.797 139.920,188.400 141.701 C 186.750 142.246,184.153 142.907,182.629 143.170 C 179.672 143.680,178.583 144.111,177.559 145.174 C 177.168 145.580,175.362 146.112,172.937 146.537 C 170.748 146.920,168.372 147.589,167.657 148.024 C 163.435 150.591,131.548 150.552,128.047 147.975 C 127.471 147.551,125.423 146.861,123.495 146.441 C 121.066 145.911,119.777 145.419,119.295 144.836 C 118.913 144.373,117.520 143.619,116.200 143.161 C 114.880 142.702,113.651 142.065,113.470 141.745 C 113.288 141.425,112.161 140.730,110.965 140.201 C 109.769 139.672,108.688 138.975,108.564 138.651 C 107.967 137.094,101.418 135.830,100.354 137.066 M107.073 139.210 C 108.013 139.885,109.597 140.797,110.591 141.237 C 111.586 141.677,112.400 142.188,112.400 142.372 C 112.400 142.556,113.435 143.191,114.700 143.783 C 115.965 144.375,117.630 145.287,118.400 145.810 C 119.170 146.332,120.668 146.952,121.730 147.188 C 122.791 147.424,124.559 148.073,125.659 148.630 C 131.511 151.595,160.137 151.933,168.600 149.136 C 169.920 148.700,172.530 147.929,174.400 147.424 C 176.270 146.919,178.700 146.031,179.800 145.450 C 180.900 144.870,183.240 144.139,185.000 143.828 C 186.760 143.516,189.010 143.055,190.000 142.804 C 194.411 141.683,196.085 141.527,201.600 141.720 C 205.280 141.849,208.111 142.154,209.344 142.556 C 210.414 142.904,212.844 143.459,214.744 143.789 C 216.780 144.143,219.105 144.862,220.402 145.540 C 221.614 146.173,223.871 146.980,225.420 147.332 C 226.968 147.684,229.094 148.352,230.143 148.816 C 236.979 151.840,268.361 151.712,274.265 148.636 C 275.329 148.082,277.140 147.428,278.290 147.183 C 279.439 146.938,281.047 146.285,281.862 145.732 C 282.678 145.179,284.257 144.292,285.372 143.761 C 286.488 143.231,287.981 142.393,288.692 141.898 C 295.001 137.509,298.660 136.378,299.634 138.515 C 300.210 139.779,299.837 141.991,298.833 143.267 C 298.423 143.788,297.592 145.112,296.986 146.208 C 295.338 149.191,290.257 154.591,286.620 157.226 C 284.849 158.509,282.623 160.198,281.673 160.979 C 280.723 161.761,279.708 162.400,279.418 162.400 C 279.127 162.400,277.955 163.043,276.812 163.829 C 275.669 164.616,274.003 165.517,273.111 165.831 C 272.218 166.146,270.928 166.747,270.244 167.167 C 269.560 167.586,267.920 168.234,266.600 168.606 C 265.280 168.978,263.480 169.689,262.600 170.187 C 261.720 170.685,260.010 171.319,258.800 171.597 C 253.792 172.746,251.783 175.339,254.227 177.500 C 256.066 179.127,270.659 178.595,274.699 176.755 C 275.669 176.313,277.955 175.625,279.778 175.227 C 281.602 174.828,283.613 174.127,284.247 173.669 C 284.881 173.211,286.405 172.466,287.634 172.014 C 288.863 171.562,290.289 170.744,290.804 170.196 C 291.318 169.648,291.946 169.200,292.199 169.200 C 292.452 169.200,293.504 168.599,294.537 167.865 C 295.569 167.131,297.672 166.110,299.209 165.597 L 302.003 164.664 303.002 165.602 C 303.551 166.117,304.000 166.795,304.000 167.108 C 304.000 168.391,302.697 172.028,301.792 173.270 C 301.259 174.002,300.381 175.230,299.842 176.000 C 297.482 179.366,290.035 185.952,286.628 187.686 C 285.733 188.142,284.631 188.868,284.180 189.301 C 283.729 189.733,282.469 190.473,281.380 190.944 C 280.291 191.416,278.950 192.105,278.400 192.476 C 277.850 192.847,276.515 193.449,275.433 193.814 C 274.351 194.179,272.821 194.890,272.033 195.394 C 271.245 195.898,269.340 196.617,267.800 196.992 C 260.599 198.743,258.025 200.913,259.568 203.937 C 260.718 206.191,268.483 206.675,273.400 204.800 C 274.060 204.548,276.307 203.991,278.393 203.561 C 280.876 203.050,282.711 202.416,283.706 201.726 C 284.647 201.074,286.556 200.389,288.713 199.927 L 292.200 199.182 292.900 200.035 C 294.226 201.652,291.848 205.962,288.306 208.360 C 287.461 208.932,285.925 210.075,284.892 210.900 C 283.860 211.725,282.813 212.400,282.568 212.400 C 282.322 212.400,281.328 212.941,280.360 213.603 C 279.392 214.264,277.610 215.098,276.400 215.456 C 275.190 215.814,273.222 216.538,272.027 217.064 C 270.832 217.590,267.412 218.451,264.427 218.978 C 254.504 220.728,254.800 220.506,250.032 229.800 C 246.649 236.396,236.175 246.926,230.172 249.766 C 229.057 250.294,227.457 251.192,226.617 251.762 C 225.777 252.332,224.350 252.998,223.445 253.241 C 222.540 253.485,221.080 254.106,220.200 254.621 C 215.965 257.100,198.560 259.279,193.400 257.977 C 192.520 257.755,189.517 257.144,186.727 256.619 C 183.480 256.008,181.031 255.309,179.927 254.678 C 178.977 254.134,177.266 253.389,176.125 253.021 C 174.984 252.653,173.384 251.823,172.570 251.176 C 171.756 250.529,170.786 250.000,170.415 250.000 C 170.044 250.000,168.697 249.190,167.422 248.200 C 166.147 247.210,164.974 246.400,164.816 246.400 C 163.979 246.400,154.825 237.163,153.273 234.754 C 152.903 234.179,152.015 232.937,151.300 231.994 C 150.585 231.051,150.000 229.961,150.000 229.571 C 150.000 229.181,149.548 228.324,148.995 227.667 C 148.442 227.010,147.720 225.707,147.390 224.771 C 146.237 221.504,144.024 220.409,135.672 218.971 C 132.518 218.428,129.276 217.648,128.469 217.237 C 127.661 216.826,125.716 216.108,124.146 215.642 C 122.577 215.175,121.086 214.545,120.834 214.241 C 120.581 213.937,119.491 213.307,118.410 212.843 C 117.330 212.378,116.324 211.800,116.175 211.559 C 116.025 211.318,114.825 210.423,113.507 209.571 C 108.277 206.191,105.282 201.358,107.352 199.639 C 108.160 198.970,114.426 200.432,116.294 201.726 C 117.276 202.407,119.156 203.063,121.607 203.579 C 123.693 204.019,126.210 204.631,127.200 204.939 C 133.200 206.809,139.430 206.145,140.745 203.495 C 142.061 200.842,139.385 198.779,132.227 196.929 C 130.922 196.592,128.702 195.705,127.294 194.958 C 125.886 194.211,124.414 193.600,124.023 193.600 C 123.632 193.600,122.632 193.139,121.801 192.575 C 120.970 192.011,119.550 191.260,118.645 190.906 C 117.740 190.552,116.408 189.753,115.685 189.130 C 114.962 188.508,113.477 187.546,112.385 186.993 C 111.293 186.439,110.400 185.848,110.400 185.680 C 110.400 185.511,109.892 185.072,109.270 184.705 C 107.528 183.676,100.000 176.179,100.000 175.472 C 100.000 175.128,99.667 174.610,99.260 174.323 C 97.877 173.347,95.786 168.124,96.223 166.736 C 96.976 164.338,101.196 164.831,105.379 167.805 C 106.458 168.572,107.548 169.200,107.801 169.200 C 108.054 169.200,108.682 169.648,109.196 170.196 C 109.711 170.744,111.137 171.564,112.366 172.019 C 113.595 172.475,115.230 173.256,116.000 173.756 C 116.770 174.257,118.570 174.893,120.000 175.171 C 121.430 175.450,123.608 176.101,124.841 176.619 C 130.539 179.013,145.866 179.113,146.613 176.760 C 147.393 174.300,145.968 172.865,141.547 171.660 C 139.867 171.202,137.887 170.476,137.147 170.046 C 136.406 169.616,135.035 169.063,134.101 168.817 C 133.166 168.571,131.102 167.747,129.512 166.985 C 127.923 166.223,126.419 165.600,126.171 165.600 C 125.923 165.600,124.992 165.073,124.103 164.428 C 123.213 163.784,121.583 162.799,120.480 162.240 C 119.377 161.682,118.413 161.062,118.337 160.864 C 118.262 160.666,117.210 159.843,116.000 159.037 C 112.045 156.399,111.029 155.579,108.865 153.274 C 107.690 152.023,106.134 150.370,105.406 149.600 C 104.678 148.830,103.684 147.390,103.196 146.400 C 102.709 145.410,101.949 144.206,101.508 143.724 C 97.518 139.367,102.108 135.644,107.073 139.210 M121.735 221.599 C 120.612 222.052,120.241 223.289,120.745 224.906 C 120.966 225.618,121.352 227.237,121.603 228.504 C 121.856 229.786,122.474 231.302,122.995 231.921 C 123.510 232.534,124.211 234.107,124.552 235.417 C 124.892 236.728,125.498 238.070,125.897 238.400 C 126.297 238.730,126.962 239.891,127.376 240.981 C 127.789 242.071,128.604 243.421,129.186 243.981 C 129.768 244.541,130.470 245.528,130.747 246.174 C 131.737 248.485,135.710 252.996,137.867 254.260 C 138.820 254.819,139.600 255.448,139.600 255.658 C 139.600 255.867,140.275 256.349,141.100 256.728 C 141.925 257.106,143.323 257.903,144.206 258.499 C 145.089 259.094,146.627 259.827,147.624 260.127 C 148.620 260.427,149.896 261.133,150.459 261.696 C 151.130 262.366,152.296 262.885,153.841 263.200 C 155.139 263.464,156.983 264.194,157.941 264.822 C 158.898 265.450,160.518 266.075,161.541 266.211 C 165.655 266.760,167.625 267.197,168.491 267.756 C 171.767 269.869,195.339 270.091,199.124 268.045 C 199.936 267.606,201.590 266.772,202.800 266.192 C 207.310 264.028,206.901 264.346,205.993 263.710 C 205.443 263.325,203.051 263.038,198.298 262.788 C 186.917 262.190,183.735 261.751,181.198 260.431 C 179.977 259.795,177.831 259.050,176.430 258.774 C 174.960 258.485,173.617 257.962,173.254 257.538 C 172.908 257.134,171.418 256.342,169.943 255.778 C 168.356 255.172,167.010 254.369,166.644 253.812 C 166.305 253.293,165.483 252.750,164.819 252.604 C 164.155 252.458,163.250 251.833,162.810 251.214 C 162.369 250.595,161.602 249.987,161.104 249.862 C 159.996 249.583,151.267 240.902,150.307 239.124 C 149.926 238.418,149.328 237.680,148.977 237.483 C 148.627 237.287,148.005 236.346,147.596 235.392 C 147.187 234.437,146.509 233.472,146.089 233.248 C 145.670 233.023,144.936 231.821,144.460 230.577 C 143.939 229.214,142.920 227.642,141.897 226.624 L 140.200 224.935 135.943 224.509 C 132.659 224.181,131.287 223.855,129.943 223.082 C 127.296 221.560,123.523 220.878,121.735 221.599 M273.124 221.788 C 272.093 222.072,270.616 222.696,269.843 223.174 C 268.831 223.799,267.203 224.183,264.045 224.543 C 258.785 225.143,257.123 226.311,255.606 230.473 C 255.140 231.749,254.430 232.970,254.028 233.185 C 253.625 233.400,253.009 234.295,252.657 235.173 C 252.306 236.051,251.565 237.067,251.009 237.431 C 250.454 237.794,250.000 238.349,250.000 238.663 C 250.000 239.243,247.236 242.353,244.054 245.354 C 243.094 246.259,241.670 247.675,240.890 248.500 C 240.110 249.325,239.293 250.000,239.074 250.000 C 238.856 250.000,238.003 250.675,237.178 251.500 C 236.354 252.325,234.858 253.720,233.854 254.600 C 232.850 255.480,231.527 256.674,230.914 257.254 C 230.301 257.834,229.399 258.430,228.909 258.578 C 228.419 258.727,227.249 259.493,226.309 260.282 C 225.369 261.071,223.973 261.980,223.207 262.302 C 222.440 262.625,221.585 263.214,221.306 263.612 C 221.028 264.010,219.855 264.643,218.700 265.018 C 217.545 265.394,216.040 266.118,215.355 266.629 C 214.670 267.139,212.870 267.844,211.355 268.195 C 209.840 268.546,207.961 269.275,207.179 269.816 C 206.043 270.602,204.641 270.955,200.179 271.578 C 197.111 272.006,193.430 272.634,192.000 272.972 C 188.173 273.879,180.857 273.793,176.348 272.788 C 174.345 272.342,170.355 271.824,167.482 271.636 C 163.408 271.371,162.155 271.153,161.786 270.648 C 161.499 270.256,160.736 270.000,159.856 270.000 C 158.112 270.000,157.973 270.463,159.540 271.055 C 160.243 271.320,160.970 272.081,161.440 273.042 C 162.117 274.430,162.498 274.696,164.922 275.483 C 166.419 275.968,168.168 276.807,168.808 277.345 C 169.448 277.884,170.743 278.447,171.686 278.596 C 174.416 279.028,176.520 279.703,177.628 280.502 C 178.695 281.272,180.235 281.537,190.000 282.629 C 199.456 283.686,201.160 283.731,206.216 283.053 C 208.847 282.700,213.070 282.221,215.600 281.989 C 219.338 281.647,220.656 281.345,222.635 280.382 C 223.974 279.730,226.130 279.001,227.427 278.761 C 229.946 278.296,232.000 277.417,232.000 276.805 C 232.000 276.599,232.765 276.235,233.700 275.997 C 236.364 275.316,237.750 274.728,238.400 274.002 C 238.730 273.634,239.870 273.012,240.933 272.620 C 241.996 272.229,243.397 271.389,244.047 270.754 C 244.696 270.119,245.491 269.600,245.813 269.600 C 246.134 269.600,247.073 269.015,247.899 268.300 C 248.724 267.585,249.850 266.750,250.400 266.445 C 253.344 264.811,264.911 253.260,266.436 250.432 C 266.786 249.783,267.641 248.604,268.336 247.812 C 269.031 247.020,269.600 246.098,269.600 245.764 C 269.600 245.429,270.116 244.670,270.746 244.077 C 271.377 243.485,272.216 242.100,272.612 241.000 C 273.008 239.900,273.677 238.718,274.099 238.373 C 274.522 238.028,275.196 236.559,275.598 235.108 C 276.001 233.657,276.696 232.104,277.144 231.656 C 277.592 231.208,278.120 230.158,278.318 229.321 C 278.517 228.484,278.886 226.942,279.139 225.894 C 280.204 221.488,278.482 220.312,273.124 221.788 M278.205 223.208 C 278.665 223.953,277.524 228.133,276.155 230.712 C 275.410 232.117,274.800 233.620,274.800 234.053 C 274.800 235.015,273.868 236.879,273.047 237.561 C 272.714 237.838,272.232 238.725,271.977 239.532 C 271.722 240.339,271.017 241.634,270.411 242.408 C 269.806 243.183,268.930 244.561,268.466 245.471 C 268.001 246.381,267.464 247.188,267.271 247.263 C 267.079 247.338,266.489 248.054,265.961 248.853 C 262.246 254.473,254.473 262.246,248.853 265.961 C 248.054 266.489,247.338 267.079,247.263 267.271 C 247.188 267.464,246.381 268.001,245.471 268.466 C 244.561 268.930,243.183 269.806,242.408 270.411 C 241.634 271.017,240.347 271.719,239.548 271.971 C 238.750 272.224,237.773 272.788,237.378 273.224 C 236.983 273.661,235.656 274.304,234.430 274.653 C 233.203 275.003,231.300 275.791,230.200 276.404 C 229.100 277.018,227.120 277.740,225.800 278.008 C 224.480 278.277,222.017 279.006,220.326 279.628 C 212.508 282.508,187.316 282.613,180.200 279.795 C 178.880 279.272,176.900 278.637,175.800 278.385 C 172.072 277.528,170.000 276.741,170.000 276.182 C 170.000 275.391,168.935 274.941,166.306 274.622 C 165.045 274.469,163.899 274.161,163.761 273.937 C 162.865 272.487,167.523 272.323,171.675 273.659 C 176.292 275.144,192.053 275.081,197.600 273.554 C 199.690 272.979,202.906 272.223,204.747 271.874 C 206.587 271.525,208.426 270.938,208.833 270.570 C 209.240 270.201,210.795 269.562,212.287 269.149 C 213.779 268.736,215.450 268.069,216.000 267.666 C 216.550 267.264,217.900 266.605,219.000 266.202 C 220.100 265.798,221.450 265.067,222.000 264.577 C 222.550 264.087,223.911 263.231,225.025 262.674 C 226.139 262.118,227.296 261.366,227.596 261.005 C 227.896 260.643,228.695 260.063,229.371 259.715 C 232.012 258.357,250.000 241.944,250.000 240.892 C 250.000 240.684,250.694 239.722,251.541 238.756 C 252.389 237.790,253.361 236.460,253.700 235.799 C 254.040 235.139,254.689 234.262,255.143 233.852 C 255.596 233.442,256.247 232.262,256.590 231.230 C 257.842 227.460,259.987 225.997,265.266 225.310 C 268.094 224.942,270.691 224.339,272.167 223.708 C 276.179 221.991,277.391 221.891,278.205 223.208 M127.788 223.777 C 128.977 224.340,130.367 224.801,130.875 224.803 C 137.609 224.823,141.853 226.969,143.425 231.148 C 143.808 232.167,144.679 233.657,145.361 234.461 C 146.042 235.265,146.960 236.470,147.400 237.139 C 149.941 241.006,151.903 243.375,155.151 246.500 C 157.152 248.425,158.938 250.000,159.119 250.000 C 159.300 250.000,160.397 250.810,161.557 251.800 C 162.716 252.790,163.887 253.600,164.158 253.600 C 164.429 253.600,165.150 254.122,165.761 254.759 C 166.372 255.397,167.711 256.235,168.736 256.622 C 169.761 257.008,171.008 257.640,171.507 258.026 C 172.006 258.411,173.716 259.119,175.307 259.600 C 176.898 260.080,178.753 260.811,179.430 261.225 C 180.744 262.030,182.185 262.367,188.800 263.417 C 193.320 264.134,194.488 264.575,195.922 266.111 C 197.040 267.309,196.947 267.359,192.390 268.026 C 187.171 268.789,176.367 268.294,171.400 267.065 C 169.200 266.521,166.087 265.861,164.483 265.599 C 162.879 265.337,160.629 264.625,159.483 264.018 C 158.337 263.411,156.453 262.690,155.295 262.416 C 154.138 262.142,152.537 261.474,151.737 260.932 C 150.938 260.389,149.355 259.598,148.221 259.173 C 147.086 258.749,145.547 257.951,144.801 257.401 C 144.055 256.850,143.220 256.400,142.947 256.400 C 142.673 256.400,141.583 255.677,140.524 254.793 C 139.466 253.909,137.845 252.554,136.922 251.784 C 135.205 250.350,131.600 245.896,131.600 245.209 C 131.600 245.000,131.074 244.229,130.432 243.497 C 129.789 242.766,128.805 241.184,128.245 239.984 C 127.684 238.783,126.865 237.350,126.424 236.800 C 125.983 236.250,125.359 234.774,125.038 233.521 C 124.717 232.267,124.080 230.734,123.621 230.114 C 123.163 229.494,122.544 227.820,122.246 226.394 C 121.353 222.126,122.827 221.430,127.788 223.777 " stroke="none" fill="#840484" fill-rule="evenodd"></path></g></svg>